# xmcd
#
# Track frame offsets:
# 150
# 13347
# 30669
# 47699
# 67613
# 82728
# 95415
# 110772
# 141616
# 156826
# 167952
# 181159
# 197191
# 212873
# 228818
# 243790
# 255229
# 269634
# 287343
# 305865
#
# Disc length: 4270 seconds
#
#
# Revision: 0
# Processed by: cddbd v1.5.1PL2 Copyright (c) Steve Scherf et al.
# Submitted via: FreeRIP 2.944 
#
DISCID=1610ac14
DTITLE=ZZ-top - Rio garande mud and Tres Hombres
DYEAR=1900
DGENRE=Blues
TTITLE0=Francine
TTITLE1=Just Got Paid
TTITLE2=Mushmouth Shoutin'
TTITLE3=Ko Ko Blue
TTITLE4=Chevrolet
TTITLE5=Apologies to pearly
TTITLE6=Bar-b-q
TTITLE7=Sure got cold after the rain fell
TTITLE8=Whiskey'n mama
TTITLE9=Down brownie
TTITLE10=Waitin for the bus
TTITLE11=Jesus left Chicago
TTITLE12=Beer drinkers and hell raisers
TTITLE13=Master of sparks
TTITLE14=Hot, blue and righteous
TTITLE15=Move me on down the line
TTITLE16=Precious an grace
TTITLE17=La grange
TTITLE18=Shiek
TTITLE19=Have you heard?
EXTD=
EXTT0=
EXTT1=
EXTT2=
EXTT3=
EXTT4=
EXTT5=
EXTT6=
EXTT7=
EXTT8=
EXTT9=
EXTT10=
EXTT11=
EXTT12=
EXTT13=
EXTT14=
EXTT15=
EXTT16=
EXTT17=
EXTT18=
EXTT19=
PLAYORDER=
